<?xml version="1.0" standalone="yes"?>

<svg version="1.1" viewBox="0.0 0.0 186.0 174.0" fill="none" stroke="none" stroke-linecap="square" stroke-miterlimit="10" xmlns="http://www.w3.org/2000/svg" xmlns:xlink="http://www.w3.org/1999/xlink"><path d="M96.2874 7.938587L56.2874 47.938587" fill-rule="nonzero" stroke="#073763" stroke-width="2.0" stroke-linejoin="round" stroke-linecap="butt"></path><path d="M96.25654 7.957234L136.25655 47.957233" fill-rule="nonzero" stroke="#999999" stroke-width="2.0" stroke-linejoin="round" stroke-linecap="butt"></path><path d="M65.51416 20.687994Q64.904785 21.203619 64.35791 21.445807Q63.811035 21.687994 63.17041 21.687994Q62.248535 21.687994 61.678223 21.133307Q61.10791 20.578619 61.10791 19.734869Q61.10791 19.156744 61.35791 18.727057Q61.60791 18.297369 62.037598 18.031744Q62.467285 17.766119 63.07666 17.656744Q63.467285 17.578619 64.55322 17.531744Q65.63916 17.484869 66.10791 17.297369Q66.23291 16.828619 66.23291 16.516119Q66.23291 16.125494 65.95166 15.89112Q65.54541 15.57862 64.779785 15.57862Q64.04541 15.57862 63.592285 15.898932Q63.13916 16.219244 62.92041 16.812994L61.76416 16.703619Q62.123535 15.70362 62.88916 15.17237Q63.654785 14.64112 64.82666 14.64112Q66.07666 14.64112 66.811035 15.23487Q67.373535 15.67237 67.373535 16.391119Q67.373535 16.922369 67.217285 17.641119L66.842285 19.312994Q66.654785 20.109869 66.654785 20.609869Q66.654785 20.937994 66.79541 21.531744L65.63916 21.531744Q65.54541 21.203619 65.51416 20.687994ZM65.936035 18.109869Q65.686035 18.219244 65.4126 18.266119Q65.13916 18.312994 64.498535 18.375494Q63.48291 18.453619 63.07666 18.594244Q62.67041 18.734869 62.459473 19.031744Q62.248535 19.328619 62.248535 19.687994Q62.248535 20.172369 62.57666 20.484869Q62.904785 20.797369 63.529785 20.797369Q64.092285 20.797369 64.623535 20.492682Q65.154785 20.187994 65.45947 19.648932Q65.76416 19.109869 65.936035 18.109869Z" fill-rule="nonzero" fill="#000000"></path><path d="M129.69566 19.057257L130.85191 19.166632Q130.41441 20.432257 129.61754 21.049444Q128.82066 21.666632 127.80504 21.666632Q126.71129 21.666632 126.0316 20.955694Q125.35191 20.244757 125.35191 18.963507Q125.35191 17.854132 125.78941 16.791632Q126.22691 15.729132 127.03941 15.174444Q127.85191 14.619757 128.89879 14.619757Q129.99254 14.619757 130.62535 15.229132Q131.25816 15.838507 131.25816 16.854132L130.13316 16.932257Q130.11754 16.291632 129.75816 15.924444Q129.39879 15.557257 128.78941 15.557257Q128.10191 15.557257 127.5941 15.994757Q127.08629 16.432257 126.797226 17.330694Q126.50816 18.229132 126.50816 19.041632Q126.50816 19.916632 126.890976 20.34632Q127.27379 20.776007 127.83629 20.776007Q128.38316 20.776007 128.89879 20.34632Q129.41441 19.916632 129.69566 19.057257Z" fill-rule="nonzero" fill="#000000"></path><path d="M56.295216 48.047974L16.295214 88.04797" fill-rule="nonzero" stroke="#073763" stroke-width="2.0" stroke-linejoin="round" stroke-linecap="butt"></path><path d="M20.969187 61.56409L22.906687 52.25159L24.047312 52.25159L23.359812 55.579716Q23.906687 55.079716 24.352 54.87659Q24.797312 54.673466 25.281687 54.673466Q26.219187 54.673466 26.852 55.37659Q27.484812 56.079716 27.484812 57.423466Q27.484812 58.31409 27.234812 59.05628Q26.984812 59.798466 26.609812 60.30628Q26.234812 60.81409 25.836374 61.11878Q25.437937 61.423466 25.016062 61.571903Q24.594187 61.72034 24.203562 61.72034Q23.547312 61.72034 23.0395 61.36878Q22.531687 61.017216 22.234812 60.28284L21.969187 61.56409L20.969187 61.56409ZM22.672312 58.798466L22.656687 59.017216Q22.656687 59.87659 23.07075 60.329716Q23.484812 60.78284 24.094187 60.78284Q24.703562 60.78284 25.211374 60.360966Q25.719187 59.93909 26.0395 59.040653Q26.359812 58.142216 26.359812 57.392216Q26.359812 56.53284 25.953562 56.06409Q25.547312 55.59534 24.937937 55.59534Q24.312937 55.59534 23.797312 56.071903Q23.281687 56.548466 22.922312 57.548466Q22.672312 58.298466 22.672312 58.798466Z" fill-rule="nonzero" fill="#000000"></path><path d="M48.33552 39.983704L64.335526 55.983704" fill-rule="nonzero" stroke="#0000ff" stroke-width="1.0" stroke-linejoin="round" stroke-linecap="butt"></path><path d="M17.131454 87.28743L17.131454 87.28743L22.788315 92.94429L21.37413 94.358475L15.71727 88.701614ZM27.03096 97.186935L27.03096 97.186935L32.68782 102.843796L31.273636 104.25798L25.616776 98.60112ZM36.930466 107.08644L36.930466 107.08644L42.587326 112.7433L41.17314 114.157486L35.51628 108.500626ZM46.829987 116.98595L46.829987 116.98595L52.48683 122.64281L51.072617 124.05699L45.41577 118.40013ZM56.729477 126.88544L56.729477 126.88544L57.13147 127.28743L55.717255 128.70164L55.31526 128.29965Z" fill-rule="nonzero" fill="#073763"></path><path d="M16.654465 115.0136L17.810715 115.12298Q17.373215 116.3886 16.57634 117.00579Q15.779464 117.62298 14.763839 117.62298Q13.670089 117.62298 12.990401 116.91204Q12.310714 116.2011 12.310714 114.91985Q12.310714 113.81048 12.748214 112.74798Q13.185714 111.68548 13.998214 111.13079Q14.810714 110.5761 15.857589 110.5761Q16.95134 110.5761 17.584152 111.18548Q18.216965 111.79485 18.216965 112.81048L17.091965 112.8886Q17.07634 112.24798 16.716965 111.88079Q16.35759 111.5136 15.748214 111.5136Q15.060714 111.5136 14.552901 111.9511Q14.045089 112.3886 13.756026 113.28704Q13.466964 114.18548 13.466964 114.99798Q13.466964 115.87298 13.849776 116.302666Q14.232589 116.73235 14.795089 116.73235Q15.341964 116.73235 15.857589 116.302666Q16.373215 115.87298 16.654465 115.0136ZM19.88884 111.4511L19.966965 109.71673L20.29509 108.15423L21.591965 108.15423L21.26384 109.71673L20.591965 111.4511L19.88884 111.4511Z" fill-rule="nonzero" fill="#000000"></path><path d="M56.260998 127.864586L16.260994 167.86458" fill-rule="nonzero" stroke="#073763" stroke-width="2.0" stroke-linejoin="round" stroke-linecap="butt"></path><path d="M136.05757 48.125046L176.05759 88.125046" fill-rule="nonzero" stroke="#999999" stroke-width="2.0" stroke-linejoin="round" stroke-linecap="butt"></path><path d="M169.24843 60.43892Q168.26405 61.579544 167.18593 61.579544Q166.2328 61.579544 165.59218 60.868607Q164.95155 60.15767 164.95155 58.81392Q164.95155 57.579544 165.45155 56.56392Q165.95155 55.548294 166.71718 55.04048Q167.4828 54.53267 168.2328 54.53267Q169.49843 54.53267 170.13905 55.735794L170.90468 52.110794L172.0453 52.110794L170.09218 61.423294L169.0453 61.423294L169.24843 60.43892ZM166.09218 58.59517Q166.09218 59.298294 166.2328 59.704544Q166.37343 60.110794 166.70937 60.38423Q167.0453 60.65767 167.51405 60.65767Q168.2953 60.65767 168.93593 59.84517Q169.77968 58.767044 169.77968 57.173294Q169.77968 56.37642 169.3578 55.923294Q168.93593 55.47017 168.31093 55.47017Q167.88905 55.47017 167.55312 55.65767Q167.21718 55.84517 166.88124 56.28267Q166.5453 56.72017 166.31874 57.399857Q166.09218 58.079544 166.09218 58.59517Z" fill-rule="nonzero" fill="#000000"></path><path d="M176.923 88.701614L176.923 88.701614L171.26614 94.358475L169.85196 92.94429L175.50882 87.28743ZM167.0235 98.60112L167.0235 98.60112L161.36664 104.25798L159.95245 102.843796L165.60931 97.186935ZM157.12401 108.500626L157.12401 108.500626L151.46718 114.157486L150.05296 112.7433L155.7098 107.08644ZM147.22452 118.40013L147.22452 118.40013L141.56766 124.05699L140.15347 122.64281L145.81033 116.98595ZM137.32501 128.29962L137.32501 128.29962L136.923 128.70163L135.50882 127.287445L135.91083 126.88544Z" fill-rule="nonzero" fill="#999999"></path><path d="M25.555536 139.06825L26.664911 139.19325Q26.430536 140.02138 25.563349 140.77138Q24.696161 141.52138 23.493036 141.52138Q22.743036 141.52138 22.118036 141.16982Q21.493036 140.81825 21.164911 140.162Q20.836786 139.50575 20.836786 138.662Q20.836786 137.55263 21.344599 136.51357Q21.852411 135.4745 22.664911 134.9745Q23.477411 134.4745 24.430536 134.4745Q25.633661 134.4745 26.352411 135.2245Q27.071161 135.9745 27.071161 137.27138Q27.071161 137.75575 26.993036 138.287L22.024286 138.287Q21.993036 138.4745 21.993036 138.63075Q21.993036 139.58388 22.430536 140.08388Q22.868036 140.58388 23.493036 140.58388Q24.086786 140.58388 24.657099 140.19325Q25.227411 139.80263 25.555536 139.06825ZM22.211786 137.39638L25.993036 137.39638Q25.993036 137.2245 25.993036 137.14638Q25.993036 136.287 25.563349 135.82607Q25.133661 135.36513 24.461786 135.36513Q23.727411 135.36513 23.118036 135.87294Q22.508661 136.38075 22.211786 137.39638Z" fill-rule="nonzero" fill="#000000"></path><path d="M171.89993 124.67242Q171.29056 125.18804 170.74368 125.43023Q170.19681 125.67242 169.55618 125.67242Q168.63431 125.67242 168.064 125.11773Q167.49368 124.56304 167.49368 123.71929Q167.49368 123.14117 167.74368 122.71148Q167.99368 122.28179 168.42337 122.01617Q168.85306 121.75054 169.46243 121.64117Q169.85306 121.56304 170.939 121.51617Q172.02493 121.46929 172.49368 121.28179Q172.61868 120.81304 172.61868 120.50054Q172.61868 120.10992 172.33743 119.87554Q171.93118 119.56304 171.16556 119.56304Q170.43118 119.56304 169.97806 119.883354Q169.52493 120.20367 169.30618 120.79742L168.14993 120.68804Q168.50931 119.68804 169.27493 119.15679Q170.04056 118.62554 171.21243 118.62554Q172.46243 118.62554 173.19681 119.21929Q173.75931 119.65679 173.75931 120.37554Q173.75931 120.90679 173.60306 121.62554L173.22806 123.29742Q173.04056 124.09429 173.04056 124.59429Q173.04056 124.92242 173.18118 125.51617L172.02493 125.51617Q171.93118 125.18804 171.89993 124.67242ZM172.32181 122.09429Q172.07181 122.20367 171.79837 122.25054Q171.52493 122.29742 170.88431 122.35992Q169.86868 122.43804 169.46243 122.57867Q169.05618 122.71929 168.84525 123.01617Q168.63431 123.31304 168.63431 123.67242Q168.63431 124.15679 168.96243 124.46929Q169.29056 124.78179 169.91556 124.78179Q170.47806 124.78179 171.00931 124.477104Q171.54056 124.17242 171.84525 123.633354Q172.14993 123.09429 172.32181 122.09429ZM175.97806 119.50054L176.05618 117.76617L176.38431 116.20367L177.68118 116.20367L177.35306 117.76617L176.68118 119.50054L175.97806 119.50054Z" fill-rule="nonzero" fill="#000000"></path><path d="M96.837585 88.571686L96.837585 88.571686L91.18074 94.228546L89.766525 92.81436L95.42337 87.1575ZM86.938095 98.47119L86.938095 98.47119L81.28125 104.12805L79.867035 102.71387L85.52388 97.05701ZM77.03859 108.3707L77.03859 108.3707L71.38173 114.02756L69.967545 112.61337L75.624405 106.95651ZM67.139084 118.27022L67.139084 118.27022L61.482224 123.92706L60.06804 122.51285L65.7249 116.856ZM57.23958 128.16968L57.23958 128.16968L56.83757 128.57169L55.423386 127.1575L55.825394 126.75549Z" fill-rule="nonzero" fill="#274e13"></path><path d="M136.61063 48.66516L136.61063 48.66516L130.95377 54.32202L129.53958 52.907837L135.19644 47.250977ZM126.71115 58.564667L126.71115 58.564667L121.054306 64.22153L119.64009 62.807343L125.296936 57.150482ZM116.811646 68.46417L116.811646 68.46417L111.154785 74.12103L109.7406 72.70685L115.39746 67.04999ZM106.91214 78.36369L106.91214 78.36369L101.25528 84.02054L99.841095 82.60632L105.497955 76.94948ZM97.01265 88.26317L97.01265 88.26317L96.61063 88.66519L95.19641 87.25098L95.598434 86.84895Z" fill-rule="nonzero" fill="#274e13"></path></svg>

