<?xml version="1.0" standalone="yes"?>

<svg version="1.1" viewBox="0.0 0.0 186.0 100.0" fill="none" stroke="none" stroke-linecap="square" stroke-miterlimit="10" xmlns="http://www.w3.org/2000/svg" xmlns:xlink="http://www.w3.org/1999/xlink"><path d="M96.2874 7.938587L56.2874 47.938587" fill-rule="nonzero" stroke="#073763" stroke-width="2.0" stroke-linejoin="round" stroke-linecap="butt"></path><path d="M96.25654 7.957234L136.25655 47.957233" fill-rule="nonzero" stroke="#999999" stroke-width="2.0" stroke-linejoin="round" stroke-linecap="butt"></path><path d="M65.51416 20.687994Q64.904785 21.203619 64.35791 21.445807Q63.811035 21.687994 63.17041 21.687994Q62.248535 21.687994 61.678223 21.133307Q61.10791 20.578619 61.10791 19.734869Q61.10791 19.156744 61.35791 18.727057Q61.60791 18.297369 62.037598 18.031744Q62.467285 17.766119 63.07666 17.656744Q63.467285 17.578619 64.55322 17.531744Q65.63916 17.484869 66.10791 17.297369Q66.23291 16.828619 66.23291 16.516119Q66.23291 16.125494 65.95166 15.89112Q65.54541 15.57862 64.779785 15.57862Q64.04541 15.57862 63.592285 15.898932Q63.13916 16.219244 62.92041 16.812994L61.76416 16.703619Q62.123535 15.70362 62.88916 15.17237Q63.654785 14.64112 64.82666 14.64112Q66.07666 14.64112 66.811035 15.23487Q67.373535 15.67237 67.373535 16.391119Q67.373535 16.922369 67.217285 17.641119L66.842285 19.312994Q66.654785 20.109869 66.654785 20.609869Q66.654785 20.937994 66.79541 21.531744L65.63916 21.531744Q65.54541 21.203619 65.51416 20.687994ZM65.936035 18.109869Q65.686035 18.219244 65.4126 18.266119Q65.13916 18.312994 64.498535 18.375494Q63.48291 18.453619 63.07666 18.594244Q62.67041 18.734869 62.459473 19.031744Q62.248535 19.328619 62.248535 19.687994Q62.248535 20.172369 62.57666 20.484869Q62.904785 20.797369 63.529785 20.797369Q64.092285 20.797369 64.623535 20.492682Q65.154785 20.187994 65.45947 19.648932Q65.76416 19.109869 65.936035 18.109869Z" fill-rule="nonzero" fill="#000000"></path><path d="M129.69566 19.057257L130.85191 19.166632Q130.41441 20.432257 129.61754 21.049444Q128.82066 21.666632 127.80504 21.666632Q126.71129 21.666632 126.0316 20.955694Q125.35191 20.244757 125.35191 18.963507Q125.35191 17.854132 125.78941 16.791632Q126.22691 15.729132 127.03941 15.174444Q127.85191 14.619757 128.89879 14.619757Q129.99254 14.619757 130.62535 15.229132Q131.25816 15.838507 131.25816 16.854132L130.13316 16.932257Q130.11754 16.291632 129.75816 15.924444Q129.39879 15.557257 128.78941 15.557257Q128.10191 15.557257 127.5941 15.994757Q127.08629 16.432257 126.797226 17.330694Q126.50816 18.229132 126.50816 19.041632Q126.50816 19.916632 126.890976 20.34632Q127.27379 20.776007 127.83629 20.776007Q128.38316 20.776007 128.89879 20.34632Q129.41441 19.916632 129.69566 19.057257Z" fill-rule="nonzero" fill="#000000"></path><path d="M56.295216 48.047974L16.295214 88.04797" fill-rule="nonzero" stroke="#073763" stroke-width="2.0" stroke-linejoin="round" stroke-linecap="butt"></path><path d="M20.969187 61.56409L22.906687 52.25159L24.047312 52.25159L23.359812 55.579716Q23.906687 55.079716 24.352 54.87659Q24.797312 54.673466 25.281687 54.673466Q26.219187 54.673466 26.852 55.37659Q27.484812 56.079716 27.484812 57.423466Q27.484812 58.31409 27.234812 59.05628Q26.984812 59.798466 26.609812 60.30628Q26.234812 60.81409 25.836374 61.11878Q25.437937 61.423466 25.016062 61.571903Q24.594187 61.72034 24.203562 61.72034Q23.547312 61.72034 23.0395 61.36878Q22.531687 61.017216 22.234812 60.28284L21.969187 61.56409L20.969187 61.56409ZM22.672312 58.798466L22.656687 59.017216Q22.656687 59.87659 23.07075 60.329716Q23.484812 60.78284 24.094187 60.78284Q24.703562 60.78284 25.211374 60.360966Q25.719187 59.93909 26.0395 59.040653Q26.359812 58.142216 26.359812 57.392216Q26.359812 56.53284 25.953562 56.06409Q25.547312 55.59534 24.937937 55.59534Q24.312937 55.59534 23.797312 56.071903Q23.281687 56.548466 22.922312 57.548466Q22.672312 58.298466 22.672312 58.798466Z" fill-rule="nonzero" fill="#000000"></path><path d="M48.33552 39.983704L64.335526 55.983704" fill-rule="nonzero" stroke="#0000ff" stroke-width="1.0" stroke-linejoin="round" stroke-linecap="butt"></path><path d="M136.05757 48.125046L176.05759 88.125046" fill-rule="nonzero" stroke="#999999" stroke-width="2.0" stroke-linejoin="round" stroke-linecap="butt"></path><path d="M169.24843 60.43892Q168.26405 61.579544 167.18593 61.579544Q166.2328 61.579544 165.59218 60.868607Q164.95155 60.15767 164.95155 58.81392Q164.95155 57.579544 165.45155 56.56392Q165.95155 55.548294 166.71718 55.04048Q167.4828 54.53267 168.2328 54.53267Q169.49843 54.53267 170.13905 55.735794L170.90468 52.110794L172.0453 52.110794L170.09218 61.423294L169.0453 61.423294L169.24843 60.43892ZM166.09218 58.59517Q166.09218 59.298294 166.2328 59.704544Q166.37343 60.110794 166.70937 60.38423Q167.0453 60.65767 167.51405 60.65767Q168.2953 60.65767 168.93593 59.84517Q169.77968 58.767044 169.77968 57.173294Q169.77968 56.37642 169.3578 55.923294Q168.93593 55.47017 168.31093 55.47017Q167.88905 55.47017 167.55312 55.65767Q167.21718 55.84517 166.88124 56.28267Q166.5453 56.72017 166.31874 57.399857Q166.09218 58.079544 166.09218 58.59517Z" fill-rule="nonzero" fill="#000000"></path></svg>

