<?xml version="1.0" standalone="yes"?>

<svg version="1.1" viewBox="0.0 0.0 100.0 100.0" fill="none" stroke="none" stroke-linecap="square" stroke-miterlimit="10" xmlns="http://www.w3.org/2000/svg" xmlns:xlink="http://www.w3.org/1999/xlink"><path d="M47.703815 7.98615L7.703816 47.986153" fill-rule="nonzero" stroke="#073763" stroke-width="2.0" stroke-linejoin="round" stroke-linecap="butt"></path><path d="M47.703815 7.98615L87.70382 47.986153" fill-rule="nonzero" stroke="#999999" stroke-width="2.0" stroke-linejoin="round" stroke-linecap="butt"></path><path d="M47.188965 88.67969L47.188965 88.67969L41.53212 83.02284L42.946304 81.60866L48.60315 87.2655ZM37.289474 78.78021L37.289474 78.78021L31.63263 73.12337L33.046814 71.70918L38.70366 77.36603ZM27.389969 68.88072L27.389969 68.88072L21.733124 63.22386L23.147339 61.809677L28.804184 67.46654ZM17.490494 58.98123L17.490494 58.98123L11.833633 53.324387L13.247818 51.91017L18.904678 57.567017ZM7.590988 49.08174L7.590988 49.08174L7.1889343 48.679688L8.603149 47.265472L9.005203 47.667526Z" fill-rule="nonzero" fill="#073763"></path><path d="M88.363785 48.593216L88.363785 48.593216L82.70694 54.250076L81.292725 52.83589L86.94957 47.17903ZM78.46431 58.49272L78.46431 58.49272L72.807465 64.14958L71.39325 62.735397L77.050095 57.078537ZM68.564804 68.39223L68.564804 68.39223L62.907944 74.04909L61.49376 72.6349L67.15062 66.97804ZM58.6653 78.29175L58.6653 78.29175L53.00844 83.94859L51.594254 82.53438L57.251114 76.87753ZM48.76581 88.19122L48.76581 88.19122L48.363785 88.59325L46.94957 87.17903L47.351593 86.77701Z" fill-rule="nonzero" fill="#999999"></path><path d="M17.154125 20.735558Q16.54475 21.251183 15.997874 21.49337Q15.450999 21.735558 14.810374 21.735558Q13.888499 21.735558 13.318187 21.18087Q12.747874 20.626183 12.747874 19.782433Q12.747874 19.204308 12.997874 18.77462Q13.247874 18.344933 13.677562 18.079308Q14.107249 17.813683 14.716624 17.704308Q15.107249 17.626183 16.193188 17.579308Q17.279125 17.532433 17.747875 17.344933Q17.872875 16.876183 17.872875 16.563683Q17.872875 16.173058 17.591625 15.938682Q17.185375 15.626182 16.41975 15.626182Q15.685374 15.626182 15.232249 15.946494Q14.779124 16.266808 14.560374 16.860558L13.404124 16.751183Q13.763499 15.751182 14.529124 15.219932Q15.294749 14.688682 16.466625 14.688682Q17.716625 14.688682 18.451 15.282432Q19.0135 15.719932 19.0135 16.438683Q19.0135 16.969933 18.85725 17.688683L18.48225 19.360558Q18.29475 20.157433 18.29475 20.657433Q18.29475 20.985558 18.435375 21.579308L17.279125 21.579308Q17.185375 21.251183 17.154125 20.735558ZM17.576 18.157433Q17.326 18.266808 17.052563 18.313683Q16.779125 18.360558 16.1385 18.423058Q15.122874 18.501183 14.716624 18.641808Q14.310374 18.782433 14.099437 19.079308Q13.888499 19.376183 13.888499 19.735558Q13.888499 20.219933 14.216624 20.532433Q14.544749 20.844933 15.169749 20.844933Q15.732249 20.844933 16.2635 20.540245Q16.79475 20.235558 17.099438 19.696495Q17.404125 19.157433 17.576 18.157433Z" fill-rule="nonzero" fill="#000000"></path><path d="M76.54723 21.539297L78.48473 12.226798L79.62536 12.226798L78.93786 15.554923Q79.48473 15.054923 79.930046 14.851798Q80.37536 14.648673 80.85973 14.648673Q81.79723 14.648673 82.430046 15.351798Q83.06286 16.054922 83.06286 17.398672Q83.06286 18.289297 82.81286 19.031485Q82.56286 19.773672 82.18786 20.281485Q81.81286 20.789297 81.41442 21.093985Q81.01598 21.398672 80.59411 21.54711Q80.17223 21.695547 79.78161 21.695547Q79.12536 21.695547 78.617546 21.343985Q78.10973 20.992422 77.81286 20.258047L77.54723 21.539297L76.54723 21.539297ZM78.25036 18.773672L78.23473 18.992422Q78.23473 19.851797 78.648796 20.304922Q79.06286 20.758047 79.67223 20.758047Q80.28161 20.758047 80.78942 20.336172Q81.29723 19.914297 81.617546 19.01586Q81.93786 18.117422 81.93786 17.367422Q81.93786 16.508047 81.53161 16.039297Q81.12536 15.570548 80.51598 15.570548Q79.89098 15.570548 79.37536 16.04711Q78.85973 16.523672 78.50036 17.523672Q78.25036 18.273672 78.25036 18.773672Z" fill-rule="nonzero" fill="#000000"></path><path d="M11.398891 77.37213L13.336391 68.05963L14.477016 68.05963L13.789516 71.38776Q14.336391 70.88776 14.781704 70.68463Q15.227016 70.48151 15.711391 70.48151Q16.648891 70.48151 17.281704 71.18463Q17.914516 71.88776 17.914516 73.23151Q17.914516 74.12213 17.664516 74.86432Q17.414516 75.60651 17.039516 76.11432Q16.664516 76.62213 16.266079 76.92682Q15.867641 77.23151 15.445766 77.379944Q15.023891 77.52838 14.633266 77.52838Q13.977016 77.52838 13.469204 77.17682Q12.961391 76.82526 12.664516 76.09088L12.398891 77.37213L11.398891 77.37213ZM13.102016 74.60651L13.086391 74.82526Q13.086391 75.68463 13.500454 76.13776Q13.914516 76.59088 14.523891 76.59088Q15.133266 76.59088 15.641079 76.16901Q16.148891 75.74713 16.469204 74.848694Q16.789516 73.95026 16.789516 73.20026Q16.789516 72.34088 16.383266 71.87213Q15.977016 71.40338 15.367641 71.40338Q14.742641 71.40338 14.227016 71.879944Q13.711391 72.35651 13.352016 73.35651Q13.102016 74.10651 13.102016 74.60651ZM20.023891 71.35651L20.102016 69.62213L20.430141 68.05963L21.727016 68.05963L21.398891 69.62213L20.727016 71.35651L20.023891 71.35651Z" fill-rule="nonzero" fill="#000000"></path><path d="M79.67927 76.63485Q79.06989 77.150475 78.52302 77.39266Q77.97614 77.63485 77.33552 77.63485Q76.41364 77.63485 75.84333 77.08016Q75.27302 76.525475 75.27302 75.681725Q75.27302 75.1036 75.52302 74.67391Q75.77302 74.244225 76.202705 73.9786Q76.63239 73.712975 77.24177 73.6036Q77.63239 73.525475 78.71833 73.4786Q79.80427 73.431725 80.27302 73.244225Q80.39802 72.775475 80.39802 72.462975Q80.39802 72.07235 80.11677 71.837975Q79.71052 71.525475 78.94489 71.525475Q78.21052 71.525475 77.75739 71.84579Q77.30427 72.1661 77.08552 72.75985L75.92927 72.650475Q76.28864 71.650475 77.05427 71.119225Q77.81989 70.587975 78.99177 70.587975Q80.24177 70.587975 80.97614 71.181725Q81.53864 71.619225 81.53864 72.337975Q81.53864 72.869225 81.38239 73.587975L81.00739 75.25985Q80.81989 76.056725 80.81989 76.556725Q80.81989 76.88485 80.96052 77.4786L79.80427 77.4786Q79.71052 77.150475 79.67927 76.63485ZM80.10114 74.056725Q79.85114 74.1661 79.577705 74.212975Q79.30427 74.25985 78.66364 74.32235Q77.64802 74.400475 77.24177 74.5411Q76.83552 74.681725 76.62458 74.9786Q76.41364 75.275475 76.41364 75.63485Q76.41364 76.119225 76.74177 76.431725Q77.06989 76.744225 77.69489 76.744225Q78.25739 76.744225 78.78864 76.43954Q79.31989 76.13485 79.62458 75.59579Q79.92927 75.056725 80.10114 74.056725ZM83.75739 71.462975L83.83552 69.7286L84.16364 68.1661L85.46052 68.1661L85.13239 69.7286L84.46052 71.462975L83.75739 71.462975Z" fill-rule="nonzero" fill="#000000"></path></svg>

