<?xml version="1.0" standalone="yes"?>

<svg version="1.1" viewBox="0.0 0.0 100.0 100.0" fill="none" stroke="none" stroke-linecap="square" stroke-miterlimit="10" xmlns="http://www.w3.org/2000/svg" xmlns:xlink="http://www.w3.org/1999/xlink"><path d="M49.96941 30.0L9.96941 70.0" fill-rule="nonzero" stroke="#073763" stroke-width="2.0" stroke-linejoin="round" stroke-linecap="butt"></path><path d="M49.96941 30.0L89.96941 70.0" fill-rule="nonzero" stroke="#999999" stroke-width="2.0" stroke-linejoin="round" stroke-linecap="butt"></path><path d="M19.419716 42.749405Q18.81034 43.26503 18.263466 43.507217Q17.71659 43.749405 17.075966 43.749405Q16.15409 43.749405 15.583779 43.194717Q15.013467 42.64003 15.013467 41.79628Q15.013467 41.218155 15.263467 40.788467Q15.513467 40.35878 15.943154 40.093155Q16.37284 39.82753 16.982216 39.718155Q17.37284 39.64003 18.458778 39.593155Q19.544716 39.54628 20.013466 39.35878Q20.138466 38.89003 20.138466 38.57753Q20.138466 38.186905 19.857216 37.95253Q19.450966 37.64003 18.68534 37.64003Q17.950966 37.64003 17.49784 37.960342Q17.044716 38.280655 16.825966 38.874405L15.669717 38.76503Q16.02909 37.76503 16.794716 37.23378Q17.56034 36.70253 18.732216 36.70253Q19.982216 36.70253 20.71659 37.29628Q21.27909 37.73378 21.27909 38.45253Q21.27909 38.98378 21.12284 39.70253L20.74784 41.374405Q20.56034 42.17128 20.56034 42.67128Q20.56034 42.999405 20.700966 43.593155L19.544716 43.593155Q19.450966 43.26503 19.419716 42.749405ZM19.84159 40.17128Q19.59159 40.280655 19.318153 40.32753Q19.044716 40.374405 18.40409 40.436905Q17.388466 40.51503 16.982216 40.655655Q16.575966 40.79628 16.365028 41.093155Q16.15409 41.39003 16.15409 41.749405Q16.15409 42.23378 16.482216 42.54628Q16.81034 42.85878 17.43534 42.85878Q17.99784 42.85878 18.52909 42.554092Q19.06034 42.249405 19.365028 41.710342Q19.669716 41.17128 19.84159 40.17128Z" fill-rule="nonzero" fill="#000000"></path><path d="M78.81283 43.553146L80.75033 34.240646L81.89095 34.240646L81.20345 37.56877Q81.75033 37.06877 82.19564 36.865646Q82.64095 36.66252 83.12533 36.66252Q84.06283 36.66252 84.69564 37.365646Q85.32845 38.06877 85.32845 39.41252Q85.32845 40.303146 85.07845 41.045334Q84.82845 41.78752 84.45345 42.295334Q84.07845 42.803146 83.680016 43.107834Q83.28158 43.41252 82.8597 43.56096Q82.43783 43.709396 82.0472 43.709396Q81.39095 43.709396 80.88314 43.357834Q80.37533 43.00627 80.07845 42.271896L79.81283 43.553146L78.81283 43.553146ZM80.51595 40.78752L80.50033 41.00627Q80.50033 41.865646 80.91439 42.31877Q81.32845 42.771896 81.93783 42.771896Q82.5472 42.771896 83.055016 42.35002Q83.56283 41.928146 83.88314 41.02971Q84.20345 40.13127 84.20345 39.38127Q84.20345 38.521896 83.7972 38.053146Q83.39095 37.584396 82.78158 37.584396Q82.15658 37.584396 81.64095 38.06096Q81.12533 38.53752 80.76595 39.53752Q80.51595 40.28752 80.51595 40.78752Z" fill-rule="nonzero" fill="#000000"></path></svg>

