<?xml version="1.0" standalone="yes"?>

<svg version="1.1" viewBox="0.0 0.0 137.0 135.0" fill="none" stroke="none" stroke-linecap="square" stroke-miterlimit="10" xmlns="http://www.w3.org/2000/svg" xmlns:xlink="http://www.w3.org/1999/xlink"><path d="M87.95188 7.954883L47.95188 47.954884" fill-rule="nonzero" stroke="#073763" stroke-width="2.0" stroke-linejoin="round" stroke-linecap="butt"></path><path d="M87.936584 7.954883L127.93659 47.954884" fill-rule="nonzero" stroke="#999999" stroke-width="2.0" stroke-linejoin="round" stroke-linecap="butt"></path><path d="M57.17864 20.70429Q56.569263 21.219915 56.02239 21.462103Q55.475513 21.70429 54.83489 21.70429Q53.913013 21.70429 53.3427 21.149603Q52.77239 20.594915 52.77239 19.751165Q52.77239 19.17304 53.02239 18.743353Q53.27239 18.313665 53.702076 18.04804Q54.131763 17.782415 54.74114 17.67304Q55.131763 17.594915 56.2177 17.54804Q57.30364 17.501165 57.77239 17.313665Q57.89739 16.844915 57.89739 16.532415Q57.89739 16.14179 57.61614 15.907415Q57.20989 15.594915 56.444263 15.594915Q55.70989 15.594915 55.256763 15.915228Q54.80364 16.23554 54.58489 16.82929L53.42864 16.719915Q53.788013 15.719915 54.55364 15.188665Q55.319263 14.657415 56.49114 14.657415Q57.74114 14.657415 58.475513 15.251165Q59.038013 15.688665 59.038013 16.407415Q59.038013 16.938665 58.881763 17.657415L58.506763 19.32929Q58.319263 20.126165 58.319263 20.626165Q58.319263 20.95429 58.45989 21.54804L57.30364 21.54804Q57.20989 21.219915 57.17864 20.70429ZM57.600513 18.126165Q57.350513 18.23554 57.077076 18.282415Q56.80364 18.32929 56.163013 18.39179Q55.14739 18.469915 54.74114 18.61054Q54.33489 18.751165 54.12395 19.04804Q53.913013 19.344915 53.913013 19.70429Q53.913013 20.188665 54.24114 20.501165Q54.569263 20.813665 55.194263 20.813665Q55.756763 20.813665 56.288013 20.508978Q56.819263 20.20429 57.12395 19.665228Q57.42864 19.126165 57.600513 18.126165Z" fill-rule="nonzero" fill="#000000"></path><path d="M121.652336 19.054907L122.808586 19.164282Q122.371086 20.429907 121.57421 21.047094Q120.777336 21.664282 119.76171 21.664282Q118.66796 21.664282 117.98827 20.953344Q117.308586 20.242407 117.308586 18.961157Q117.308586 17.851782 117.746086 16.789282Q118.183586 15.726781 118.996086 15.172093Q119.808586 14.617406 120.85546 14.617406Q121.94921 14.617406 122.58202 15.226781Q123.214836 15.836156 123.214836 16.851782L122.089836 16.929907Q122.07421 16.289282 121.714836 15.922093Q121.35546 15.554906 120.746086 15.554906Q120.058586 15.554906 119.55077 15.992406Q119.04296 16.429907 118.7539 17.328344Q118.464836 18.226782 118.464836 19.039282Q118.464836 19.914282 118.84765 20.34397Q119.23046 20.773657 119.79296 20.773657Q120.339836 20.773657 120.85546 20.34397Q121.371086 19.914282 121.652336 19.054907Z" fill-rule="nonzero" fill="#000000"></path><path d="M47.95969 48.06427L7.9596906 88.06427" fill-rule="nonzero" stroke="#073763" stroke-width="2.0" stroke-linejoin="round" stroke-linecap="butt"></path><path d="M12.633665 61.580387L14.571165 52.267887L15.71179 52.267887L15.02429 55.596012Q15.571165 55.096012 16.016478 54.892887Q16.46179 54.689762 16.946165 54.689762Q17.883665 54.689762 18.516478 55.392887Q19.14929 56.096012 19.14929 57.439762Q19.14929 58.330387 18.89929 59.072575Q18.64929 59.814762 18.27429 60.322575Q17.89929 60.830387 17.500853 61.135075Q17.102415 61.439762 16.68054 61.5882Q16.258665 61.736637 15.86804 61.736637Q15.21179 61.736637 14.703978 61.385075Q14.196165 61.033512 13.89929 60.299137L13.633665 61.580387L12.633665 61.580387ZM14.33679 58.814762L14.321165 59.033512Q14.321165 59.892887 14.735228 60.346012Q15.14929 60.799137 15.758665 60.799137Q16.36804 60.799137 16.875853 60.377262Q17.383665 59.955387 17.703978 59.05695Q18.02429 58.158512 18.02429 57.408512Q18.02429 56.549137 17.61804 56.080387Q17.21179 55.611637 16.602415 55.611637Q15.977415 55.611637 15.46179 56.0882Q14.946165 56.564762 14.58679 57.564762Q14.33679 58.314762 14.33679 58.814762Z" fill-rule="nonzero" fill="#000000"></path><path d="M48.67807 47.249695L48.67807 47.249695L54.33493 52.906555L52.920746 54.32074L47.263885 48.66388ZM58.577576 57.1492L58.577576 57.1492L64.234436 62.80606L62.82025 64.220245L57.16339 58.563385ZM68.47708 67.048706L68.47708 67.048706L74.13394 72.70557L72.71976 74.11975L67.0629 68.46289ZM78.37659 76.94821L78.37659 76.94821L84.03345 82.60507L82.61926 84.01926L76.9624 78.3624ZM88.27611 86.8477L88.27611 86.8477L88.678085 87.24968L87.26387 88.663895L86.86189 88.26192Z" fill-rule="nonzero" fill="#274e13"></path><path d="M8.647491 87.31465L8.647491 87.31465L14.304352 92.97151L12.890167 94.3857L7.233307 88.728836ZM18.546997 97.21416L18.546997 97.21416L24.203857 102.87102L22.789673 104.2852L17.132812 98.62834ZM28.446503 107.11366L28.446503 107.11366L34.103363 112.77052L32.68918 114.18471L27.032318 108.52785ZM38.346024 117.01317L38.346024 117.01317L44.00287 122.67003L42.588654 124.08421L36.93181 118.42735ZM48.245514 126.91266L48.245514 126.91266L48.647507 127.31465L47.23329 128.72887L46.8313 128.32687Z" fill-rule="nonzero" fill="#073763"></path><path d="M16.435665 123.05239L17.591915 123.161766Q17.154415 124.42739 16.35754 125.04458Q15.560666 125.661766 14.545041 125.661766Q13.451291 125.661766 12.771604 124.95083Q12.091916 124.23989 12.091916 122.95864Q12.091916 121.849266 12.529416 120.786766Q12.966916 119.724266 13.779416 119.16958Q14.591916 118.61489 15.638791 118.61489Q16.73254 118.61489 17.365353 119.224266Q17.998165 119.83364 17.998165 120.849266L16.873165 120.92739Q16.85754 120.286766 16.498165 119.91958Q16.13879 119.55239 15.529416 119.55239Q14.841916 119.55239 14.334104 119.98989Q13.826291 120.42739 13.537229 121.32583Q13.248166 122.224266 13.248166 123.036766Q13.248166 123.911766 13.630979 124.34145Q14.013791 124.77114 14.576291 124.77114Q15.123166 124.77114 15.638791 124.34145Q16.154415 123.911766 16.435665 123.05239ZM19.67004 119.48989L19.748165 117.755516L20.07629 116.193016L21.373165 116.193016L21.04504 117.755516L20.373165 119.48989L19.67004 119.48989Z" fill-rule="nonzero" fill="#000000"></path><path d="M128.64369 48.742218L128.64369 48.742218L122.98685 54.39908L121.57263 52.984894L127.22948 47.328033ZM118.74422 58.641724L118.74422 58.641724L113.08737 64.298584L111.67316 62.8844L117.33 57.22754ZM108.84471 68.54123L108.84471 68.54123L103.18785 74.19809L101.77367 72.783905L107.43053 67.127045ZM98.945206 78.44075L98.945206 78.44075L93.288345 84.097595L91.87416 82.68338L97.53102 77.026535ZM89.045715 88.340225L89.045715 88.340225L88.64369 88.74225L87.22948 87.32803L87.6315 86.92601Z" fill-rule="nonzero" fill="#999999"></path><path d="M119.823524 84.58008Q119.21415 85.0957 118.667274 85.33789Q118.1204 85.58008 117.479774 85.58008Q116.5579 85.58008 115.98759 85.02539Q115.417274 84.4707 115.417274 83.62695Q115.417274 83.04883 115.667274 82.61914Q115.917274 82.18945 116.34696 81.92383Q116.77665 81.6582 117.386024 81.54883Q117.77665 81.4707 118.86259 81.42383Q119.948524 81.37695 120.417274 81.18945Q120.542274 80.7207 120.542274 80.4082Q120.542274 80.01758 120.261024 79.7832Q119.854774 79.4707 119.08915 79.4707Q118.354774 79.4707 117.90165 79.791016Q117.448524 80.11133 117.229774 80.70508L116.073524 80.5957Q116.4329 79.5957 117.198524 79.06445Q117.96415 78.5332 119.136024 78.5332Q120.386024 78.5332 121.1204 79.12695Q121.6829 79.56445 121.6829 80.2832Q121.6829 80.81445 121.52665 81.5332L121.15165 83.20508Q120.96415 84.00195 120.96415 84.50195Q120.96415 84.83008 121.104774 85.42383L119.948524 85.42383Q119.854774 85.0957 119.823524 84.58008ZM120.2454 82.00195Q119.9954 82.11133 119.72196 82.1582Q119.448524 82.20508 118.8079 82.26758Q117.792274 82.3457 117.386024 82.48633Q116.979774 82.62695 116.76884 82.92383Q116.5579 83.2207 116.5579 83.58008Q116.5579 84.06445 116.886024 84.37695Q117.21415 84.68945 117.83915 84.68945Q118.40165 84.68945 118.9329 84.384766Q119.46415 84.08008 119.76884 83.541016Q120.073524 83.00195 120.2454 82.00195ZM123.90165 79.4082L123.979774 77.67383L124.3079 76.11133L125.604774 76.11133L125.27665 77.67383L124.604774 79.4082L123.90165 79.4082Z" fill-rule="nonzero" fill="#000000"></path><path d="M88.651505 88.85161L88.651505 88.85161L82.99466 94.50847L81.580444 93.094284L87.23729 87.43742ZM78.75203 98.751114L78.75203 98.751114L73.095184 104.407974L71.68097 102.99379L77.337814 97.33693ZM68.85252 108.65062L68.85252 108.65062L63.195663 114.30748L61.78148 112.893295L67.43834 107.236435ZM58.95302 118.55014L58.95302 118.55014L53.296158 124.206985L51.881973 122.79277L57.538834 117.135925ZM49.053528 128.44962L49.053528 128.44962L48.651505 128.85164L47.23729 127.43742L47.639313 127.0354Z" fill-rule="nonzero" fill="#999999"></path><path d="M75.4368 125.45808L77.3743 116.14558L78.51492 116.14558L77.82742 119.4737Q78.3743 118.9737 78.81961 118.77058Q79.26492 118.56745 79.7493 118.56745Q80.6868 118.56745 81.31961 119.27058Q81.95242 119.9737 81.95242 121.31745Q81.95242 122.20808 81.70242 122.950264Q81.45242 123.69245 81.07742 124.200264Q80.70242 124.70808 80.303986 125.012764Q79.90555 125.31745 79.48367 125.46589Q79.0618 125.61433 78.67117 125.61433Q78.01492 125.61433 77.50711 125.262764Q76.9993 124.9112 76.70242 124.17683L76.4368 125.45808L75.4368 125.45808ZM77.13992 122.69245L77.1243 122.9112Q77.1243 123.77058 77.53836 124.2237Q77.95242 124.67683 78.5618 124.67683Q79.17117 124.67683 79.678986 124.25495Q80.1868 123.83308 80.50711 122.93464Q80.82742 122.0362 80.82742 121.2862Q80.82742 120.42683 80.42117 119.95808Q80.01492 119.48933 79.40555 119.48933Q78.78055 119.48933 78.26492 119.96589Q77.7493 120.44245 77.38992 121.44245Q77.13992 122.19245 77.13992 122.69245ZM84.0618 119.44245L84.13992 117.70808L84.46805 116.14558L85.76492 116.14558L85.4368 117.70808L84.76492 119.44245L84.0618 119.44245Z" fill-rule="nonzero" fill="#000000"></path></svg>

