<?xml version="1.0" standalone="yes"?>

<svg version="1.1" viewBox="0.0 0.0 137.0 135.0" fill="none" stroke="none" stroke-linecap="square" stroke-miterlimit="10" xmlns="http://www.w3.org/2000/svg" xmlns:xlink="http://www.w3.org/1999/xlink"><path d="M87.95188 7.954883L47.95188 47.954884" fill-rule="nonzero" stroke="#073763" stroke-width="2.0" stroke-linejoin="round" stroke-linecap="butt"></path><path d="M87.936584 7.954883L127.93659 47.954884" fill-rule="nonzero" stroke="#999999" stroke-width="2.0" stroke-linejoin="round" stroke-linecap="butt"></path><path d="M57.17864 20.70429Q56.569263 21.219915 56.02239 21.462103Q55.475513 21.70429 54.83489 21.70429Q53.913013 21.70429 53.3427 21.149603Q52.77239 20.594915 52.77239 19.751165Q52.77239 19.17304 53.02239 18.743353Q53.27239 18.313665 53.702076 18.04804Q54.131763 17.782415 54.74114 17.67304Q55.131763 17.594915 56.2177 17.54804Q57.30364 17.501165 57.77239 17.313665Q57.89739 16.844915 57.89739 16.532415Q57.89739 16.14179 57.61614 15.907415Q57.20989 15.594915 56.444263 15.594915Q55.70989 15.594915 55.256763 15.915228Q54.80364 16.23554 54.58489 16.82929L53.42864 16.719915Q53.788013 15.719915 54.55364 15.188665Q55.319263 14.657415 56.49114 14.657415Q57.74114 14.657415 58.475513 15.251165Q59.038013 15.688665 59.038013 16.407415Q59.038013 16.938665 58.881763 17.657415L58.506763 19.32929Q58.319263 20.126165 58.319263 20.626165Q58.319263 20.95429 58.45989 21.54804L57.30364 21.54804Q57.20989 21.219915 57.17864 20.70429ZM57.600513 18.126165Q57.350513 18.23554 57.077076 18.282415Q56.80364 18.32929 56.163013 18.39179Q55.14739 18.469915 54.74114 18.61054Q54.33489 18.751165 54.12395 19.04804Q53.913013 19.344915 53.913013 19.70429Q53.913013 20.188665 54.24114 20.501165Q54.569263 20.813665 55.194263 20.813665Q55.756763 20.813665 56.288013 20.508978Q56.819263 20.20429 57.12395 19.665228Q57.42864 19.126165 57.600513 18.126165Z" fill-rule="nonzero" fill="#000000"></path><path d="M121.652336 19.054907L122.808586 19.164282Q122.371086 20.429907 121.57421 21.047094Q120.777336 21.664282 119.76171 21.664282Q118.66796 21.664282 117.98827 20.953344Q117.308586 20.242407 117.308586 18.961157Q117.308586 17.851782 117.746086 16.789282Q118.183586 15.726781 118.996086 15.172093Q119.808586 14.617406 120.85546 14.617406Q121.94921 14.617406 122.58202 15.226781Q123.214836 15.836156 123.214836 16.851782L122.089836 16.929907Q122.07421 16.289282 121.714836 15.922093Q121.35546 15.554906 120.746086 15.554906Q120.058586 15.554906 119.55077 15.992406Q119.04296 16.429907 118.7539 17.328344Q118.464836 18.226782 118.464836 19.039282Q118.464836 19.914282 118.84765 20.34397Q119.23046 20.773657 119.79296 20.773657Q120.339836 20.773657 120.85546 20.34397Q121.371086 19.914282 121.652336 19.054907Z" fill-rule="nonzero" fill="#000000"></path><path d="M47.95969 48.06427L7.9596906 88.06427" fill-rule="nonzero" stroke="#073763" stroke-width="2.0" stroke-linejoin="round" stroke-linecap="butt"></path><path d="M12.633665 61.580387L14.571165 52.267887L15.71179 52.267887L15.02429 55.596012Q15.571165 55.096012 16.016478 54.892887Q16.46179 54.689762 16.946165 54.689762Q17.883665 54.689762 18.516478 55.392887Q19.14929 56.096012 19.14929 57.439762Q19.14929 58.330387 18.89929 59.072575Q18.64929 59.814762 18.27429 60.322575Q17.89929 60.830387 17.500853 61.135075Q17.102415 61.439762 16.68054 61.5882Q16.258665 61.736637 15.86804 61.736637Q15.21179 61.736637 14.703978 61.385075Q14.196165 61.033512 13.89929 60.299137L13.633665 61.580387L12.633665 61.580387ZM14.33679 58.814762L14.321165 59.033512Q14.321165 59.892887 14.735228 60.346012Q15.14929 60.799137 15.758665 60.799137Q16.36804 60.799137 16.875853 60.377262Q17.383665 59.955387 17.703978 59.05695Q18.02429 58.158512 18.02429 57.408512Q18.02429 56.549137 17.61804 56.080387Q17.21179 55.611637 16.602415 55.611637Q15.977415 55.611637 15.46179 56.0882Q14.946165 56.564762 14.58679 57.564762Q14.33679 58.314762 14.33679 58.814762Z" fill-rule="nonzero" fill="#000000"></path><path d="M128.64067 48.696564L128.64067 48.696564L122.983826 54.353424L121.56961 52.93924L127.226456 47.28238ZM118.74118 58.59607L118.74118 58.59607L113.084335 64.25293L111.67012 62.838745L117.326965 57.181885ZM108.841675 68.495575L108.841675 68.495575L103.184814 74.152435L101.77063 72.73825L107.42749 67.08139ZM98.94217 78.395096L98.94217 78.395096L93.28531 84.05194L91.871124 82.637726L97.527985 76.98088ZM89.04266 88.294556L89.04266 88.294556L88.640656 88.69656L87.22647 87.28238L87.62848 86.88037Z" fill-rule="nonzero" fill="#999999"></path><path d="M119.88412 84.675545Q119.27474 85.19117 118.72787 85.43336Q118.18099 85.675545 117.54037 85.675545Q116.61849 85.675545 116.04818 85.12086Q115.47787 84.56617 115.47787 83.72242Q115.47787 83.144295 115.72787 82.71461Q115.97787 82.28492 116.407555 82.019295Q116.83724 81.75367 117.44662 81.644295Q117.83724 81.56617 118.92318 81.519295Q120.00912 81.47242 120.47787 81.28492Q120.60287 80.81617 120.60287 80.50367Q120.60287 80.113045 120.32162 79.87867Q119.91537 79.56617 119.14974 79.56617Q118.41537 79.56617 117.96224 79.88648Q117.50912 80.206795 117.29037 80.800545L116.13412 80.69117Q116.49349 79.69117 117.25912 79.15992Q118.02474 78.62867 119.19662 78.62867Q120.44662 78.62867 121.18099 79.22242Q121.74349 79.65992 121.74349 80.37867Q121.74349 80.90992 121.58724 81.62867L121.21224 83.300545Q121.02474 84.09742 121.02474 84.59742Q121.02474 84.925545 121.16537 85.519295L120.00912 85.519295Q119.91537 85.19117 119.88412 84.675545ZM120.30599 82.09742Q120.05599 82.206795 119.782555 82.25367Q119.50912 82.300545 118.86849 82.363045Q117.85287 82.44117 117.44662 82.581795Q117.04037 82.72242 116.82943 83.019295Q116.61849 83.31617 116.61849 83.675545Q116.61849 84.15992 116.94662 84.47242Q117.27474 84.78492 117.89974 84.78492Q118.46224 84.78492 118.99349 84.48023Q119.52474 84.175545 119.82943 83.63648Q120.13412 83.09742 120.30599 82.09742ZM123.96224 79.50367L124.04037 77.769295L124.36849 76.206795L125.66537 76.206795L125.33724 77.769295L124.66537 79.50367L123.96224 79.50367Z" fill-rule="nonzero" fill="#000000"></path></svg>

